<svg xmlns="http://www.w3.org/2000/svg" version="1.1" xmlns:xlink="http://www.w3.org/1999/xlink" width="1500" height="67" viewBox="0 0 1500 67"><svg xml:space="preserve" width="1500" height="67" data-version="2" data-id="lg_K5OdZ44anb3DkYU0A2" viewBox="0 0 571 67" x="0" y="0"><rect width="100%" height="100%" fill="transparent"></rect><path fill="#4962bf" d="M60.59 1.84v18.05l-3.63-.1-.18-4.65Q47.2 8.26 40.87 5.01v55.8l7.35.09v3.25H18.09V60.9l7.35-.09V5.01Q19.11 8.26 9.53 15.14l-.18 4.65-3.63.1V1.84Z"></path><rect width="54.87" height="62.31" x="-27.43" y="-31.16" fill="none" rx="0" ry="0" transform="translate(33.66 33.5)"></rect><path fill="#4962bf" d="M124.95 60.9v3.25h-22.42L89.89 39.23l.27-.19q-2.13.19-6.04.38v21.39l4.56.09v3.25H64.12V60.9l4.56-.09V5.19l-4.56-.09V1.84l17.95.19L95.93.91q6.7 0 11.49 2.47 4.79 2.46 7.25 6.6t2.46 9.16q0 5.77-3.34 10.05-3.35 4.27-10.05 6.88l16.65 24.74ZM84.12 35.79q7.72-.47 12.09-4.23 4.37-3.77 4.37-10.19 0-4.55-2.14-8.27-2.14-3.72-5.86-5.86T84.12 5.1Z"></path><rect width="60.83" height="63.24" x="-30.41" y="-31.62" fill="none" rx="0" ry="0" transform="translate(95.03 33.03)"></rect><path fill="#4962bf" d="m128.48 60.9 4.56-.09V5.19l-4.56-.09V1.84h24.55V5.1l-4.55.09v55.62l4.55.09v3.25h-24.55Z"></path><rect width="24.55" height="62.31" x="-12.28" y="-31.16" fill="none" rx="0" ry="0" transform="translate(141.25 33.5)"></rect><path fill="#4962bf" d="M212.74 20.07q0 9.86-8.42 15.58-8.41 5.72-24.6 6.09v19.07l10.14.09v3.25h-30.13V60.9l4.56-.09V5.19l-4.56-.09V1.84l17.95.19 13.85-.65q6.7 0 11.49 2.51t7.25 6.79q2.47 4.28 2.47 9.39m-16.56 2.7q0-4.93-2.13-8.98-2.14-4.04-5.91-6.37-3.77-2.32-8.42-2.32v33.01q7.72-.46 12.09-4.51 4.37-4.04 4.37-10.83"></path><rect width="53.01" height="62.77" x="-26.5" y="-31.39" fill="none" rx="0" ry="0" transform="translate(186.74 33.27)"></rect><path fill="#4962bf" d="M278.95 1.84V5.1l-4.55.09-2.42 58.87-11.25.09-33.58-52.82 3.54 49.48 5.48.09v3.25H217.2V60.9l4.56-.09 1.58-55.62-4.56-.09V1.84h22.97l27.07 41.95-2.42-38.6-5.49-.09V1.84Z"></path><rect width="61.75" height="62.31" x="-30.88" y="-31.16" fill="none" rx="0" ry="0" transform="translate(248.57 33.5)"></rect><path fill="#4962bf" d="M313.83.45q9.11 0 15.95 3.53 6.83 3.54 10.6 10.42 3.77 6.88 3.77 16.83 0 6.33-2.23 13.07-2.24 6.74-6.51 11.95-4.47 4.18-10.23 6.74-5.77 2.56-12.28 2.56-9.02 0-15.86-3.53-6.83-3.54-10.6-10.42-3.77-6.88-3.77-16.83 0-6.23 2.33-13.02 2.32-6.79 6.6-12 4.37-4.19 10.09-6.74Q307.41.45 313.83.45m-14.6 27.81q0 10.78 2.79 17.39 2.79 6.6 8.46 9.72 5.67 3.11 14.7 3.58 1.11-4.65 1.81-10.93.7-6.28.7-10.28 0-10.88-2.84-17.53t-8.6-9.81q-5.77-3.16-14.7-3.53-1.02 4.83-1.67 11.25-.65 6.42-.65 10.14"></path><rect width="61.48" height="65.1" x="-30.74" y="-32.55" fill="none" rx="0" ry="0" transform="translate(313.91 33.5)"></rect><path fill="#4962bf" d="M410.55 60.9v3.25h-22.41l-12.65-24.92.28-.19q-2.14.19-6.05.38v21.39l4.56.09v3.25h-24.55V60.9l4.55-.09V5.19l-4.55-.09V1.84l17.95.19L381.53.91q6.7 0 11.49 2.47 4.79 2.46 7.25 6.6 2.47 4.14 2.47 9.16 0 5.77-3.35 10.05-3.35 4.27-10.04 6.88l16.64 24.74Zm-40.83-25.11q7.72-.47 12.09-4.23 4.37-3.77 4.37-10.19 0-4.55-2.14-8.27-2.13-3.72-5.85-5.86-3.72-2.14-8.47-2.14Z"></path><rect width="60.82" height="63.24" x="-30.41" y="-31.62" fill="none" rx="0" ry="0" transform="translate(380.64 33.03)"></rect><path fill="#4962bf" d="m414.08 60.9 4.56-.09V5.19l-4.56-.09V1.84l17.95.19L445.24.91q13.86 0 21.44 7.72 7.57 7.72 7.57 22.32 0 9.86-3.81 17.35-3.81 7.48-11.44 11.67-7.62 4.18-18.6 4.18h-26.32Zm22.6 0q9.95 0 15.49-6.88 5.53-6.88 5.53-20.74 0-9.21-3.11-15.49-3.12-6.27-8.47-9.39-5.35-3.11-12.04-3.11V60.9Z"></path><rect width="60.17" height="63.24" x="-30.09" y="-31.62" fill="none" rx="0" ry="0" transform="translate(444.67 33.03)"></rect><path fill="#4962bf" d="m479.83 60.9 4.56-.09V5.19l-4.56-.09V1.84h24.56V5.1l-4.56.09v55.62l4.56.09v3.25h-24.56Z"></path><rect width="24.56" height="62.31" x="-12.28" y="-31.16" fill="none" rx="0" ry="0" transform="translate(492.61 33.5)"></rect><path fill="#4962bf" d="M546.7 54.85q4.09 0 7.91-1.67 3.81-1.67 7.07-4.84l2.41 2.7q-11.44 14.51-26.22 14.51-8.47 0-14.74-3.81-6.28-3.82-9.72-10.79-3.44-6.98-3.44-16.37 0-8.09 3.11-15.67 3.12-7.58 7.95-12.14 4.75-3.07 10.19-4.69Q536.66.45 541.96.45q7.07 0 12.97 3.02 5.91 3.02 9.35 8.42l-11.44 9.58Q548 12.91 541.21 2.96q-4.09 1.67-7.44 5.77-3.34 4.09-5.25 9.76-1.91 5.67-1.91 11.81 0 11.72 5.26 18.14 5.25 6.41 14.83 6.41"></path><rect width="54.31" height="65.1" x="-27.16" y="-32.55" fill="none" rx="0" ry="0" transform="translate(537.63 33.5)"></rect></svg></svg>